<svg width="20" height="20" fill="none" xmlns="http://www.w3.org/2000/svg"><path d="M17.5 8.125h-15a.625.625 0 0 1 0-1.25h15a.625.625 0 0 1 0 1.25Z" fill="#BFBFBF"/><path d="M15.833 2.708h-1.875V2.5a.625.625 0 0 0-1.25 0v.208H7.292V2.5a.625.625 0 0 0-1.25 0v.208H4.167A2.294 2.294 0 0 0 1.875 5v10.833a2.294 2.294 0 0 0 2.292 2.292h11.666a2.294 2.294 0 0 0 2.292-2.292V5a2.294 2.294 0 0 0-2.292-2.292Zm1.042 13.125c0 .574-.468 1.042-1.042 1.042H4.167a1.043 1.043 0 0 1-1.042-1.042V5c0-.574.467-1.042 1.042-1.042h1.875v.209a.625.625 0 0 0 1.25 0v-.209h5.416v.209a.625.625 0 0 0 1.25 0v-.209h1.875c.574 0 1.042.468 1.042 1.042v10.833Z" fill="#BFBFBF"/></svg>