<svg width="48" height="46" fill="none" xmlns="http://www.w3.org/2000/svg"><path d="M2.986 29.925A22.762 22.762 0 0 1 4.184 18.59a10.192 10.192 0 0 1-2.19-2.406 9.547 9.547 0 0 1-1.407-3.556 7.74 7.74 0 0 0-.524 2.74L0 23l.061 7.632a7.773 7.773 0 0 0 1.073 3.87 7.916 7.916 0 0 0 2.871 2.845l4.157 2.402c-2.8-2.23-4.54-5.528-5.176-9.824ZM15.5 5.862l.09.092a23.597 23.597 0 0 1 7.223-2.251 23.663 23.663 0 0 1 7.558.124l-5.029-2.805A8.108 8.108 0 0 0 21.4 0c-1.382 0-2.74.352-3.944 1.022l-4.97 2.77a10.036 10.036 0 0 1 3.014 2.07Zm13.081 36.78c-2.951.425-5.521.632-7.856.632-3.527 0-6.479-.478-8.934-1.451l5.665 3.155A8.107 8.107 0 0 0 21.4 46c1.382 0 2.74-.352 3.944-1.022l4.554-2.537a68.5 68.5 0 0 1-1.317.2Z" fill="#fff"/><path d="M47.789 23.48a21.257 21.257 0 0 0-4.856-10.698 8.332 8.332 0 0 0 1.364-1.945c.236-.464.428-.95.574-1.448.524-1.802.393-3.654-.3-5.215-.605-1.365-1.638-2.505-3.036-3.195-3.371-1.665-7.609-.08-9.563 3.537-.028.05-.054.102-.08.154l-.02.036a8.257 8.257 0 0 0-.429 1.002 22.17 22.17 0 0 0-16.248 2.307 8.453 8.453 0 0 0-.867-1.01 8.271 8.271 0 0 0-3.73-2.159c-2.295-.604-4.729-.14-6.46 1.464a6.342 6.342 0 0 0-1.982 3.915c-.21 1.691.2 3.502 1.225 5.082.285.437.611.848.973 1.226A8.43 8.43 0 0 0 6.2 18a21.113 21.113 0 0 0-1.584 11.69c1.74 11.75 11.805 13.06 23.727 11.341a58.263 58.263 0 0 0 6.114-1.18c8.78-2.247 14.76-6.731 13.332-16.373ZM33.44 5.56c1.692-1.894 4.343-2.579 6.53-1.5 2.652 1.309 3.607 4.721 2.134 7.621l-.061.118a21.962 21.962 0 0 0-9.062-5.657 6.31 6.31 0 0 1 .46-.582ZM6.704 16.78c-2.253-2.362-2.327-5.904-.165-7.905 1.947-1.801 5.037-1.744 7.28.008a21.688 21.688 0 0 0-7.06 7.95c-.02-.018-.037-.037-.055-.056v.003ZM27.76 37.09c-10.436 1.501-19.173.842-20.383-7.327-1.21-8.169 6.269-16.008 16.704-17.51 10.436-1.502 19.876 3.903 21.086 12.072 1.21 8.17-6.972 11.264-17.407 12.765Z" fill="#fff"/><path d="m18.49 24.988-1.516.218.221 1.494 1.516-.218-.221-1.494Zm-1.624.307-1.516.212.214 1.494 1.517-.21-.215-1.496Z" fill="#fff"/><path d="m18.267 23.495-1.516.218.221 1.494 1.516-.218-.221-1.494Zm.33 3.085-1.517.21.215 1.495 1.516-.21-.214-1.496Zm5.63 3.425-1.517.21.214 1.496 1.517-.212-.214-1.494Zm1.732 1.283-1.517.211.215 1.495 1.517-.212-.215-1.494Zm1.646-.351-1.516.218.221 1.494 1.516-.218-.221-1.494Z" fill="#fff"/><path d="m29.12 30.719-1.515.218.22 1.494 1.517-.218-.222-1.494Z" fill="#fff"/><path d="m30.296 29.157-1.517.212.215 1.494 1.516-.211-.214-1.495Zm4.267-6.329-1.516.212.214 1.495 1.517-.212-.215-1.495Zm1.518-.211-1.517.211.215 1.495 1.517-.212-.215-1.494Zm-1.731-1.285-1.517.212.215 1.494 1.516-.211-.214-1.495Zm.428 2.992-1.516.211.214 1.495 1.517-.212-.215-1.494Zm-.07-8.101c.113-.314.22-.63.31-.952a12.736 12.736 0 0 0-3.842-.88 9.925 9.925 0 0 0-1.797.041 6.524 6.524 0 0 0-1.728.432 15.328 15.328 0 0 1 3.423.305 21.502 21.502 0 0 1 3.634 1.054Zm4.427 1.85a7.233 7.233 0 0 0-.574-.613c-.15.16-.29.326-.43.493.225.148.441.305.653.47a8.48 8.48 0 0 1 1.244 1.181 4.973 4.973 0 0 0-.893-1.53Zm-1.446-1.343a11.237 11.237 0 0 0-1.641-.997c-.067.147-.136.295-.21.442-.066.145-.14.285-.225.42.512.224 1.011.47 1.498.738.171-.22.365-.422.578-.603Z" fill="#fff"/></svg>