<svg width="32" height="32" fill="none" xmlns="http://www.w3.org/2000/svg"><g filter="url(#a)"><path d="M0 6.633A6.633 6.633 0 0 1 6.633 0h18.734A6.633 6.633 0 0 1 32 6.633v18.734A6.633 6.633 0 0 1 25.367 32H6.633A6.633 6.633 0 0 1 0 25.367V6.633Z" fill="url(#b)"/></g><path d="M9.078 14.726c4.924-2.166 11.295-4.807 12.175-5.173 2.306-.956 3.014-.773 2.661 1.346-.253 1.523-.984 6.564-1.568 9.702-.346 1.86-1.122 2.081-2.342 1.276-.586-.387-3.548-2.346-4.191-2.806-.587-.42-1.397-.924-.382-1.917.362-.353 2.73-2.614 4.574-4.374.242-.23-.062-.61-.34-.425a2220.17 2220.17 0 0 0-6.373 4.235c-.663.45-1.3.657-2.442.328-.864-.248-1.707-.543-2.035-.656-1.265-.434-.965-.996.263-1.536Z" fill="#fff"/><defs><linearGradient id="b" x1="1.333" y1="-11.085" x2="41.971" y2="17.509" gradientUnits="userSpaceOnUse"><stop stop-color="#fff" stop-opacity=".6"/><stop offset="1" stop-color="#fff" stop-opacity=".17"/></linearGradient><filter id="a" x="-10" y="-10" width="52" height="52" filterUnits="userSpaceOnUse" color-interpolation-filters="sRGB"><feFlood flood-opacity="0" result="BackgroundImageFix"/><feGaussianBlur in="BackgroundImageFix" stdDeviation="5"/><feComposite in2="SourceAlpha" operator="in" result="effect1_backgroundBlur_6004_538"/><feBlend in="SourceGraphic" in2="effect1_backgroundBlur_6004_538" result="shape"/></filter></defs></svg>