<svg width="32" height="32" fill="none" xmlns="http://www.w3.org/2000/svg"><g filter="url(#a)"><path d="M0 6.633A6.633 6.633 0 0 1 6.633 0h18.734A6.633 6.633 0 0 1 32 6.633v18.734A6.633 6.633 0 0 1 25.367 32H6.633A6.633 6.633 0 0 1 0 25.367V6.633Z" fill="url(#b)"/></g><path d="M23.665 12.674a1.858 1.858 0 0 0-.51-.846 2.033 2.033 0 0 0-.893-.495c-1.251-.33-6.267-.33-6.267-.33-2.09-.024-4.18.081-6.259.313-.334.093-.64.267-.892.507a1.93 1.93 0 0 0-.518.85A19.392 19.392 0 0 0 8 16.337a19.325 19.325 0 0 0 .326 3.662c.091.32.269.61.516.846.248.235.556.405.894.495 1.269.33 6.26.33 6.26.33a51.234 51.234 0 0 0 6.266-.314c.335-.086.642-.256.892-.494.247-.236.422-.528.51-.847a18.92 18.92 0 0 0 .334-3.663 17.709 17.709 0 0 0-.333-3.677Zm-9.264 5.944v-4.564l4.173 2.283-4.173 2.281Z" fill="#fff"/><defs><linearGradient id="b" x1="1.333" y1="-11.085" x2="41.971" y2="17.509" gradientUnits="userSpaceOnUse"><stop stop-color="#fff" stop-opacity=".6"/><stop offset="1" stop-color="#fff" stop-opacity=".17"/></linearGradient><filter id="a" x="-10" y="-10" width="52" height="52" filterUnits="userSpaceOnUse" color-interpolation-filters="sRGB"><feFlood flood-opacity="0" result="BackgroundImageFix"/><feGaussianBlur in="BackgroundImageFix" stdDeviation="5"/><feComposite in2="SourceAlpha" operator="in" result="effect1_backgroundBlur_6004_535"/><feBlend in="SourceGraphic" in2="effect1_backgroundBlur_6004_535" result="shape"/></filter></defs></svg>