<svg width="28" height="27" viewBox="0 0 28 27" fill="none" xmlns="http://www.w3.org/2000/svg">
<path fill-rule="evenodd" clip-rule="evenodd" d="M15.3035 4.30297C15.6885 3.91804 16.3126 3.91806 16.6975 4.30302L24.6786 12.2846C24.685 12.2906 24.6913 12.2968 24.6975 12.303C25.0824 12.6879 25.0824 13.3121 24.6975 13.697L16.6975 21.697C16.3125 22.082 15.6884 22.082 15.3035 21.697C14.9185 21.3121 14.9185 20.6879 15.3035 20.303L21.6208 13.9857H3.99987C3.45548 13.9857 3.01416 13.5444 3.01416 13C3.01416 12.4556 3.45548 12.0143 3.99987 12.0143H21.6204L15.3035 5.69698C14.9185 5.31203 14.9185 4.68791 15.3035 4.30297Z" fill="#FFC100"/>
</svg>
