<svg width="56" height="48" fill="none" xmlns="http://www.w3.org/2000/svg"><path d="M7.024 5.858A7.01 7.01 0 0 1 13.939 0H32c13.255 0 24 10.745 24 24S45.255 48 32 48H4.722a4 4 0 0 1-3.946-4.658L7.024 5.858Z" fill="#4B4A49"/><path d="M7.024 5.858A7.01 7.01 0 0 1 13.939 0H32c13.255 0 24 10.745 24 24S45.255 48 32 48H4.722a4 4 0 0 1-3.946-4.658L7.024 5.858Z" fill="#000" fill-opacity=".2"/><path d="M7.024 5.858A7.01 7.01 0 0 1 13.939 0H32c13.255 0 24 10.745 24 24S45.255 48 32 48H4.722a4 4 0 0 1-3.946-4.658L7.024 5.858Z" fill="#000" fill-opacity=".2"/></svg>