<svg width="20" height="20" fill="none" xmlns="http://www.w3.org/2000/svg"><path d="M10 15.833a2.5 2.5 0 1 0 0-5 2.5 2.5 0 0 0 0 5Z" stroke="#BFBFBF" stroke-width="1.2"/><path d="m7.594 13.3-.867.867-1.231 1.18c-.27.26-.405.389-.452.499a.514.514 0 0 0 .217.658c.101.058.286.075.652.112.207.02.311.03.398.06a.69.69 0 0 1 .416.4c.033.084.044.183.065.382.037.352.056.528.116.625a.56.56 0 0 0 .687.209c.114-.046.25-.175.52-.434L10 16.05l1.886 1.808c.27.259.405.388.519.434a.56.56 0 0 0 .687-.209c.06-.097.079-.273.116-.625.021-.199.032-.298.064-.381a.69.69 0 0 1 .417-.4c.088-.031.19-.041.398-.061.366-.036.55-.054.652-.112a.515.515 0 0 0 .217-.658c-.047-.11-.182-.24-.452-.499l-1.232-1.18-.772-.773" stroke="#BFBFBF" stroke-width="1.2"/><path d="M14.433 14.997c1.643-.018 2.56-.121 3.168-.73.732-.731.732-1.91.732-4.267l-.063-5.833c-.08-.813-.261-1.36-.67-1.768-.731-.732-1.91-.732-4.267-.732H6.666c-2.356 0-3.535 0-4.267.732-.732.732-.732 1.911-.732 4.268V10c0 2.357 0 3.536.732 4.268.64.64 1.622.72 3.434.73M7.5 5h5M5.833 7.917H7.5m6.666 0h-3.75" stroke="#BFBFBF" stroke-width="1.2" stroke-linecap="round"/></svg>