<svg width="20" height="20" fill="none" xmlns="http://www.w3.org/2000/svg"><path fill-rule="evenodd" clip-rule="evenodd" d="M5.442 2.058a.625.625 0 0 1 0 .884l-2.5 2.5a.625.625 0 0 1-.884-.884l2.5-2.5a.625.625 0 0 1 .884 0Zm9.116 0a.625.625 0 0 1 .884 0l2.5 2.5a.625.625 0 1 1-.884.884l-2.5-2.5a.625.625 0 0 1 0-.884ZM10 4.792a6.042 6.042 0 1 0 4.531 10.037.625.625 0 0 1 .938.828 7.292 7.292 0 1 1 1.823-4.823.625.625 0 0 1-1.25 0A6.042 6.042 0 0 0 10 4.791Zm0 2.083c.345 0 .625.28.625.625v3.074l1.484 1.484a.625.625 0 1 1-.884.884l-1.667-1.667a.624.624 0 0 1-.183-.442V7.5c0-.345.28-.625.625-.625Z" fill="#BFBFBF"/></svg>