<svg width="20" height="20" fill="none" xmlns="http://www.w3.org/2000/svg"><path d="M18.556 6.48V4.856a2.81 2.81 0 0 0-2.806-2.807H4.781a2.81 2.81 0 0 0-2.806 2.807v3.612a.563.563 0 0 0 1.125 0V4.856c0-.927.754-1.681 1.68-1.681h10.97c.927 0 1.68.754 1.68 1.68v1.55h-1.883a2.571 2.571 0 0 0-2.569 2.568v.386a2.571 2.571 0 0 0 2.569 2.568h1.884v1.553c0 .927-.754 1.68-1.68 1.68h-5.644a.563.563 0 1 0 0 1.126h5.643a2.81 2.81 0 0 0 2.806-2.807v-1.628c.44-.164.757-.585.757-1.081V7.56c0-.496-.316-.916-.756-1.08Zm-4.452 2.879v-.386c0-.796.647-1.443 1.443-1.443l2.64.03v3.211a.03.03 0 0 1-.03.03h-2.61a1.445 1.445 0 0 1-1.443-1.442Z" fill="#F9C74B"/><path d="M4.582 9.884c-1.876 0-3.894.58-3.894 1.853v4.36c0 .742.705 1.323 1.986 1.64.573.14 1.233.214 1.908.214.674 0 1.336-.074 1.914-.215 1.28-.315 1.986-.897 1.986-1.639v-4.36c0-1.273-2.022-1.853-3.9-1.853Zm2.774 4.027c-.026.066-.291.346-1.132.55-.967.242-2.317.243-3.284-.002-.85-.205-1.11-.492-1.127-.541v-.836c.252.115.541.213.87.29.574.141 1.23.215 1.899.215.671 0 1.33-.074 1.9-.213.33-.079.62-.177.874-.292v.829ZM4.582 11.01c1.727 0 2.674.515 2.771.727-.041.079-.319.35-1.134.542-.972.238-2.286.24-3.273-.001-.844-.2-1.108-.484-1.133-.527v-.005c.07-.205 1.017-.736 2.769-.736Zm2.775 5.077c-.018.06-.278.347-1.129.557-.983.238-2.315.237-3.287 0-.852-.21-1.112-.497-1.13-.546v-.831c.248.111.535.207.858.285 1.133.285 2.688.286 3.823.001.325-.079.614-.175.864-.287v.821Zm1.452-11.11H5.586a.563.563 0 0 0 0 1.125H8.81a.563.563 0 0 0 0-1.125Z" fill="#F9C74B"/></svg>