<svg width="28" height="30" fill="none" xmlns="http://www.w3.org/2000/svg"><path d="M28 10.618v8.763c0 1.095-.292 2.17-.846 3.119a6.274 6.274 0 0 1-2.312 2.282l-.443.25-3.964 2.262-3.276 1.869a6.374 6.374 0 0 1-6.318 0l-1.436-.82-6.247-3.56A6.274 6.274 0 0 1 .846 22.5 6.176 6.176 0 0 1 0 19.38v-8.763c0-1.095.292-2.17.846-3.119a6.275 6.275 0 0 1 2.312-2.282l7.683-4.38a6.378 6.378 0 0 1 6.318 0l7.683 4.38a6.275 6.275 0 0 1 2.312 2.282c.554.949.846 2.024.846 3.119Z" fill="url(#a)"/><path d="M27 10.618v8.763c0 .917-.244 1.819-.71 2.614a5.275 5.275 0 0 1-1.943 1.919l-.44.248-.003.002-3.965 2.261-3.275 1.87a5.374 5.374 0 0 1-5.327 0l-1.436-.82-6.248-3.561a5.274 5.274 0 0 1-1.944-1.919A5.175 5.175 0 0 1 1 19.381v-8.763c0-.917.244-1.818.71-2.614a5.275 5.275 0 0 1 1.943-1.918l7.683-4.38v-.001a5.378 5.378 0 0 1 5.328 0l7.682 4.38a5.274 5.274 0 0 1 1.945 1.92c.465.795.71 1.696.709 2.613Z" stroke="#fff" stroke-opacity=".2" stroke-width="2"/><defs><linearGradient id="a" x1="28" y1="30" x2="-.659" y2="29.288" gradientUnits="userSpaceOnUse"><stop stop-color="#F6BE43"/><stop offset="1" stop-color="#FFF06A"/></linearGradient></defs></svg>