<svg width="32" height="32" fill="none" xmlns="http://www.w3.org/2000/svg"><g filter="url(#a)"><path d="M0 6.633A6.633 6.633 0 0 1 6.633 0h18.734A6.633 6.633 0 0 1 32 6.633v18.734A6.633 6.633 0 0 1 25.367 32H6.633A6.633 6.633 0 0 1 0 25.367V6.633Z" fill="url(#b)"/></g><path d="M16.767 21.054c-5.517 0-8.643-3.74-8.766-10.054h2.759c.06 4.598 2.145 6.56 3.74 6.927V11h2.574v3.985c1.594-.184 3.249-1.962 3.8-3.985h2.575c-.429 2.452-2.268 4.291-3.555 5.027 1.287.613 3.371 2.207 4.107 5.027H21.12c-.613-1.9-2.146-3.372-4.169-3.617v3.617h-.184Z" fill="#fff"/><defs><linearGradient id="b" x1="1.333" y1="-11.085" x2="41.971" y2="17.509" gradientUnits="userSpaceOnUse"><stop stop-color="#fff" stop-opacity=".6"/><stop offset="1" stop-color="#fff" stop-opacity=".17"/></linearGradient><filter id="a" x="-10" y="-10" width="52" height="52" filterUnits="userSpaceOnUse" color-interpolation-filters="sRGB"><feFlood flood-opacity="0" result="BackgroundImageFix"/><feGaussianBlur in="BackgroundImageFix" stdDeviation="5"/><feComposite in2="SourceAlpha" operator="in" result="effect1_backgroundBlur_6004_543"/><feBlend in="SourceGraphic" in2="effect1_backgroundBlur_6004_543" result="shape"/></filter></defs></svg>